<svg xmlns="http://www.w3.org/2000/svg">
    <symbol id="upl" viewBox="0 0 20 18">
        <path d="M18 0L20 4V17C20 17.2652 19.8946 17.5196 19.7071 17.7071C19.5196 17.8946 19.2652 18 19 18H1C0.734784 18 0.48043 17.8946 0.292893 17.7071C0.105357 17.5196 0 17.2652 0 17V4.004L2 0H18ZM10 7L6 11H9V15H11V11H14L10 7ZM16.764 2H3.236L2.237 4H17.764L16.764 2Z" fill="#FFFFFF"/>
    </symbol>
    <symbol id="jpg">
        <path d="M18 2H2V16L11.292 6.706C11.4795 6.51853 11.7338 6.41321 11.999 6.41321C12.2642 6.41321 12.5185 6.51853 12.706 6.706L18 12.01V2ZM0 0.993C0.00183004 0.730378 0.1069 0.479017 0.292513 0.293218C0.478126 0.107418 0.72938 0.00209465 0.992 0H19.008C19.556 0 20 0.445 20 0.993V17.007C19.9982 17.2696 19.8931 17.521 19.7075 17.7068C19.5219 17.8926 19.2706 17.9979 19.008 18H0.992C0.728813 17.9997 0.476497 17.895 0.290489 17.7088C0.104482 17.5226 -1.33455e-07 17.2702 0 17.007V0.993ZM6 8C5.46957 8 4.96086 7.78929 4.58579 7.41421C4.21071 7.03914 4 6.53043 4 6C4 5.46957 4.21071 4.96086 4.58579 4.58579C4.96086 4.21071 5.46957 4 6 4C6.53043 4 7.03914 4.21071 7.41421 4.58579C7.78929 4.96086 8 5.46957 8 6C8 6.53043 7.78929 7.03914 7.41421 7.41421C7.03914 7.78929 6.53043 8 6 8Z" fill="grey"/>
    </symbol>
    <symbol id="plus">
        <path d="M11 9H15V11H11V15H9V11H5V9H9V5H11V9ZM10 20C7.34784 20 4.8043 18.9464 2.92893 17.0711C1.05357 15.1957 0 12.6522 0 10C0 7.34784 1.05357 4.8043 2.92893 2.92893C4.8043 1.05357 7.34784 0 10 0C12.6522 0 15.1957 1.05357 17.0711 2.92893C18.9464 4.8043 20 7.34784 20 10C20 12.6522 18.9464 15.1957 17.0711 17.0711C15.1957 18.9464 12.6522 20 10 20ZM10 18C12.1217 18 14.1566 17.1571 15.6569 15.6569C17.1571 14.1566 18 12.1217 18 10C18 7.87827 17.1571 5.84344 15.6569 4.34315C14.1566 2.84285 12.1217 2 10 2C7.87827 2 5.84344 2.84285 4.34315 4.34315C2.84285 5.84344 2 7.87827 2 10C2 12.1217 2.84285 14.1566 4.34315 15.6569C5.84344 17.1571 7.87827 18 10 18V18Z" fill="white"/>
    </symbol>  
    <symbol id="eye">
        <path d="M11.4996 4.7041C9.7694 4.7041 8.36328 6.11022 8.36328 7.84046C8.36328 9.57071 9.7694 10.9768 11.4996 10.9768C13.2299 10.9768 14.636 9.57071 14.636 7.84046C14.636 6.11022 13.2298 4.7041 11.4996 4.7041Z" fill="#7D90B2"/>
        <path d="M11.5 0C6.27273 0 1.80865 3.25133 0 7.84091C1.80865 12.4304 6.27273 15.6818 11.5 15.6818C16.7325 15.6818 21.1914 12.4304 23 7.84091C21.1914 3.25133 16.7325 0 11.5 0ZM11.5 13.0682C8.61457 13.0682 6.27273 10.7263 6.27273 7.84087C6.27273 4.95541 8.61457 2.61362 11.5 2.61362C14.3855 2.61362 16.7273 4.95546 16.7273 7.84091C16.7273 10.7264 14.3855 13.0682 11.5 13.0682Z" fill="#7D90B2"/>
    </symbol> 
    <symbol id="trush">
        <path d="M15.1872 1.47368H10.9091V1.43158C10.9091 0.631579 10.2674 0 9.45454 0H6.54545C5.73262 0 5.09091 0.631579 5.09091 1.43158V1.47368H0.812834C0.363636 1.47368 0 1.83158 0 2.27368V3.07368C0 3.51579 0.363636 3.87368 0.812834 3.87368H15.1872C15.6364 3.87368 16 3.51579 16 3.07368V2.27368C16 1.83158 15.6364 1.47368 15.1872 1.47368Z" fill="#7D90B2"/>
         <path d="M14.1182 4.96875H1.88293C1.64763 4.96875 1.47651 5.15822 1.4979 5.3898L2.09683 17.5793C2.161 18.9266 3.29469 20.0003 4.66367 20.0003H11.3161C12.6851 20.0003 13.8188 18.9477 13.8829 17.5793L14.4819 5.3898C14.5246 5.17928 14.3321 4.96875 14.1182 4.96875ZM6.67437 16.7372C6.67437 17.1161 6.3749 17.4109 5.98988 17.4109C5.60485 17.4109 5.30539 17.1161 5.30539 16.7372V8.25296C5.30539 7.87401 5.60485 7.57928 5.98988 7.57928C6.3749 7.57928 6.67437 7.87401 6.67437 8.25296V16.7372ZM10.6958 16.7372C10.6958 17.1161 10.3963 17.4109 10.0113 17.4109C9.62624 17.4109 9.32678 17.1161 9.32678 16.7372V8.25296C9.32678 7.87401 9.62624 7.57928 10.0113 7.57928C10.3963 7.57928 10.6958 7.87401 10.6958 8.25296V16.7372Z" fill="#7D90B2"/>
    </symbol> 
    <symbol id="pen">
        <path d="M18.6342 0.605251C17.8283 -0.20175 16.5149 -0.20175 15.709 0.605251L15.2852 1.02211L19.0162 4.75249L19.3668 4.39976C19.775 3.99359 20 3.4538 20 2.87127C20 2.28873 19.775 1.74895 19.372 1.34278L18.6342 0.605251Z" fill="#7D90B2"/>
        <path d="M13.4121 2.88748L17.1431 6.61783L18.2682 5.50086L14.5372 1.77051L13.4121 2.88748Z" fill="#7D90B2"/>
        <path d="M1.76871 14.4902L0 20.0002L5.5102 18.2045L16.3946 7.36612L12.6635 3.63574L1.76871 14.4902Z" fill="#7D90B2"/>
    </symbol> 
    <symbol id="up-down">
        <path d="M4 11L0 6H8L4 11Z" fill="#7D90B2"/>
        <path d="M4 0L0 5H8L4 0Z" fill="#7D90B2"/>
    </symbol>
    <symbol id="search">
        <path d="M13.4097 14.8822C11.7399 16.1799 9.63851 16.7922 7.53338 16.5942C5.42824 16.3963 3.47766 15.403 2.07881 13.8166C0.679961 12.2303 -0.0619809 10.1701 0.00405863 8.05565C0.0700982 5.94118 0.939153 3.9314 2.43427 2.43552C3.92939 0.939633 5.93814 0.0701341 8.05152 0.00406071C10.1649 -0.0620127 12.224 0.680308 13.8096 2.07988C15.3951 3.47944 16.3879 5.43102 16.5857 7.53723C16.7836 9.64345 16.1717 11.7459 14.8745 13.4166L19.6936 18.2201C20.1016 18.6267 20.1022 19.2872 19.695 19.6946C19.2878 20.1021 18.6273 20.1017 18.2204 19.6939L13.4201 14.8822H13.4097ZM8.31916 14.5495C9.13773 14.5495 9.94829 14.3882 10.7045 14.0748C11.4608 13.7614 12.148 13.302 12.7268 12.7229C13.3056 12.1438 13.7647 11.4563 14.078 10.6996C14.3913 9.94298 14.5525 9.13201 14.5525 8.31302C14.5525 7.49403 14.3913 6.68306 14.078 5.92641C13.7647 5.16976 13.3056 4.48225 12.7268 3.90314C12.148 3.32402 11.4608 2.86465 10.7045 2.55123C9.94829 2.23782 9.13773 2.07651 8.31916 2.07651C6.66598 2.07651 5.08051 2.73356 3.91153 3.90314C2.74256 5.07271 2.08583 6.659 2.08583 8.31302C2.08583 9.96705 2.74256 11.5533 3.91153 12.7229C5.08051 13.8925 6.66598 14.5495 8.31916 14.5495Z" fill="black"/>
    </symbol>
    <symbol id="3">
        <path d="M12.1951 2.14286C12.1951 3.33333 11.2195 4.28571 10 4.28571C8.78049 4.28571 7.80488 3.33333 7.80488 2.14286C7.80488 0.952381 8.78049 0 10 0C11.2195 0 12.1951 0.952381 12.1951 2.14286ZM17.8049 0C16.5854 0 15.6098 0.952381 15.6098 2.14286C15.6098 3.33333 16.5854 4.28571 17.8049 4.28571C19.0244 4.28571 20 3.33333 20 2.14286C20 0.952381 19.0244 0 17.8049 0ZM2.19512 0C0.97561 0 0 0.952381 0 2.14286C0 3.33333 0.97561 4.28571 2.19512 4.28571C3.41463 4.28571 4.39024 3.33333 4.39024 2.14286C4.39024 0.952381 3.41463 0 2.19512 0Z" fill="#606F89"/>
    </symbol>
</svg>
